<svg width="30" height="30" viewBox="0 0 30 30" fill="none" xmlns="http://www.w3.org/2000/svg">
<path d="M27.05 16.2499C26.8696 16.1008 26.6509 16.0053 26.4189 15.9744C26.1868 15.9434 25.9508 15.9783 25.7375 16.0749C24.4158 16.6798 22.9786 16.9911 21.525 16.9874C18.8361 16.9842 16.2575 15.918 14.3515 14.0213C12.4454 12.1246 11.3665 9.55133 11.35 6.86244C11.3557 6.01974 11.4606 5.18063 11.6625 4.36245C11.7054 4.14437 11.6893 3.91881 11.616 3.70901C11.5427 3.49921 11.4147 3.31276 11.2453 3.16886C11.076 3.02496 10.8713 2.92882 10.6524 2.89034C10.4335 2.85186 10.2083 2.87243 10 2.94994C8.04045 3.83108 6.33701 5.1959 5.04975 6.91617C3.76248 8.63645 2.93365 10.6557 2.64111 12.7843C2.34857 14.9129 2.60193 17.0809 3.37738 19.0846C4.15284 21.0884 5.42494 22.8622 7.07417 24.2393C8.72341 25.6164 10.6956 26.5517 12.8056 26.9572C14.9156 27.3628 17.094 27.2253 19.1362 26.5577C21.1785 25.8902 23.0175 24.7144 24.4805 23.1409C25.9436 21.5674 26.9826 19.6478 27.5 17.5624C27.5631 17.3237 27.554 17.0716 27.4739 16.838C27.3938 16.6044 27.2463 16.3998 27.05 16.2499V16.2499ZM15.175 24.6124C13.0772 24.5976 11.0353 23.9348 9.32879 22.7146C7.62228 21.4944 6.33463 19.7766 5.64215 17.7964C4.94967 15.8161 4.88622 13.6702 5.46047 11.6525C6.03473 9.63472 7.21862 7.84382 8.85005 6.52494V6.86244C8.85336 10.223 10.1898 13.4451 12.5661 15.8214C14.9424 18.1977 18.1644 19.5341 21.525 19.5374C22.4074 19.5407 23.2875 19.4485 24.15 19.2624C23.2874 20.8943 21.9956 22.2597 20.414 23.2114C18.8324 24.163 17.0209 24.6647 15.175 24.6624V24.6124Z" fill="#42446E"/>
</svg>
