<svg width="54" height="54" viewBox="0 0 54 54" fill="none" xmlns="http://www.w3.org/2000/svg">
<rect width="54" height="54" rx="27" fill="#42446E"/>
<path fill-rule="evenodd" clip-rule="evenodd" d="M27.0282 16.1667C21.0601 16.1667 16.223 21.0038 16.223 26.9719C16.223 31.745 19.3181 35.7956 23.6124 37.2256C24.153 37.3231 24.348 36.9905 24.348 36.7045C24.348 36.4478 24.3394 35.7674 24.3361 34.8672C21.3299 35.5194 20.695 33.4177 20.695 33.4177C20.2054 32.1697 19.4958 31.8371 19.4958 31.8371C18.5154 31.1665 19.5705 31.1817 19.5705 31.1817C20.656 31.2575 21.2248 32.2954 21.2248 32.2954C22.1889 33.9464 23.7554 33.4697 24.3686 33.1934C24.4672 32.4947 24.7489 32.018 25.0565 31.7483C22.658 31.4764 20.136 30.549 20.136 26.4074C20.136 25.2299 20.5574 24.2635 21.2454 23.5095C21.1359 23.2354 20.7622 22.1359 21.3526 20.6495C21.3526 20.6495 22.2594 20.3581 24.3231 21.7556C25.2045 21.5158 26.1137 21.3934 27.0271 21.3916C27.9406 21.3931 28.8498 21.5155 29.7311 21.7556C31.7959 20.357 32.7016 20.6495 32.7016 20.6495C33.292 22.1359 32.9215 23.2354 32.8089 23.5095C33.5022 24.2635 33.9182 25.2288 33.9182 26.4074C33.9182 30.5599 31.394 31.472 28.9869 31.7396C29.3714 32.0733 29.7181 32.7319 29.7181 33.7394C29.7181 35.1846 29.7051 36.3503 29.7051 36.7045C29.7051 36.9938 29.8979 37.3296 30.4494 37.2234C34.7415 35.7913 37.8334 31.7439 37.8334 26.9719C37.8334 21.0038 32.9963 16.1667 27.0282 16.1667Z" fill="#D7FFE0"/>
</svg>
