<svg width="54" height="54" viewBox="0 0 54 54" fill="none" xmlns="http://www.w3.org/2000/svg">
<rect width="54" height="54" rx="27" fill="#42446E"/>
<path d="M19.3983 21.7968C20.7074 21.7968 21.7686 20.7355 21.7686 19.4264C21.7686 18.1173 20.7074 17.0561 19.3983 17.0561C18.0892 17.0561 17.028 18.1173 17.028 19.4264C17.028 20.7355 18.0892 21.7968 19.3983 21.7968Z" fill="#D7FFE0"/>
<path d="M24.0067 23.5929V36.7435H28.0898V30.2403C28.0898 28.5243 28.4127 26.8624 30.5403 26.8624C32.6387 26.8624 32.6647 28.8244 32.6647 30.3486V36.7446H36.75V29.5329C36.75 25.9904 35.9873 23.2679 31.8468 23.2679C29.8589 23.2679 28.5264 24.3589 27.9815 25.3913H27.9262V23.5929H24.0067ZM17.3529 23.5929H21.4425V36.7435H17.3529V23.5929Z" fill="#D7FFE0"/>
</svg>
