<svg width="10" height="10" viewBox="0 0 12 10" fill="none" xmlns="http://www.w3.org/2000/svg">
<path d="M3.33317 5.5C3.15636 5.5 2.98679 5.44732 2.86177 5.35355C2.73674 5.25979 2.6665 5.13261 2.6665 5C2.6665 4.86739 2.73674 4.74021 2.86177 4.64645C2.98679 4.55268 3.15636 4.5 3.33317 4.5C3.50998 4.5 3.67955 4.55268 3.80457 4.64645C3.9296 4.74021 3.99984 4.86739 3.99984 5C3.99984 5.13261 3.9296 5.25979 3.80457 5.35355C3.67955 5.44732 3.50998 5.5 3.33317 5.5ZM3.33317 7.5C3.15636 7.5 2.98679 7.44732 2.86177 7.35355C2.73674 7.25979 2.6665 7.13261 2.6665 7C2.6665 6.86739 2.73674 6.74021 2.86177 6.64645C2.98679 6.55268 3.15636 6.5 3.33317 6.5C3.50998 6.5 3.67955 6.55268 3.80457 6.64645C3.9296 6.74021 3.99984 6.86739 3.99984 7C3.99984 7.13261 3.9296 7.25979 3.80457 7.35355C3.67955 7.44732 3.50998 7.5 3.33317 7.5ZM5.33317 7C5.33317 7.13261 5.40341 7.25979 5.52843 7.35355C5.65346 7.44732 5.82303 7.5 5.99984 7.5C6.17665 7.5 6.34622 7.44732 6.47124 7.35355C6.59627 7.25979 6.6665 7.13261 6.6665 7C6.6665 6.86739 6.59627 6.74021 6.47124 6.64645C6.34622 6.55268 6.17665 6.5 5.99984 6.5C5.82303 6.5 5.65346 6.55268 5.52843 6.64645C5.40341 6.74021 5.33317 6.86739 5.33317 7ZM8.6665 7.5C8.48969 7.5 8.32012 7.44732 8.1951 7.35355C8.07008 7.25979 7.99984 7.13261 7.99984 7C7.99984 6.86739 8.07008 6.74021 8.1951 6.64645C8.32012 6.55268 8.48969 6.5 8.6665 6.5C8.84331 6.5 9.01288 6.55268 9.13791 6.64645C9.26293 6.74021 9.33317 6.86739 9.33317 7C9.33317 7.13261 9.26293 7.25979 9.13791 7.35355C9.01288 7.44732 8.84331 7.5 8.6665 7.5ZM5.33317 5C5.33317 5.13261 5.40341 5.25979 5.52843 5.35355C5.65346 5.44732 5.82303 5.5 5.99984 5.5C6.17665 5.5 6.34622 5.44732 6.47124 5.35355C6.59627 5.25979 6.6665 5.13261 6.6665 5C6.6665 4.86739 6.59627 4.74021 6.47124 4.64645C6.34622 4.55268 6.17665 4.5 5.99984 4.5C5.82303 4.5 5.65346 4.55268 5.52843 4.64645C5.40341 4.74021 5.33317 4.86739 5.33317 5ZM8.6665 5.5C8.48969 5.5 8.32012 5.44732 8.1951 5.35355C8.07008 5.25979 7.99984 5.13261 7.99984 5C7.99984 4.86739 8.07008 4.74021 8.1951 4.64645C8.32012 4.55268 8.48969 4.5 8.6665 4.5C8.84331 4.5 9.01288 4.55268 9.13791 4.64645C9.26293 4.74021 9.33317 4.86739 9.33317 5C9.33317 5.13261 9.26293 5.25979 9.13791 5.35355C9.01288 5.44732 8.84331 5.5 8.6665 5.5ZM3.33317 2.5C3.15636 2.5 2.98679 2.55268 2.86177 2.64645C2.73674 2.74021 2.6665 2.86739 2.6665 3C2.6665 3.13261 2.73674 3.25979 2.86177 3.35355C2.98679 3.44732 3.15636 3.5 3.33317 3.5H8.6665C8.84331 3.5 9.01288 3.44732 9.13791 3.35355C9.26293 3.25979 9.33317 3.13261 9.33317 3C9.33317 2.86739 9.26293 2.74021 9.13791 2.64645C9.01288 2.55268 8.84331 2.5 8.6665 2.5H3.33317Z" fill="#A7A7A7"/>
<path fill-rule="evenodd" clip-rule="evenodd" d="M2 0.5C1.46957 0.5 0.960859 0.658035 0.585787 0.93934C0.210714 1.22064 0 1.60218 0 2V8C0 8.39782 0.210714 8.77936 0.585787 9.06066C0.960859 9.34196 1.46957 9.5 2 9.5H10C10.5304 9.5 11.0391 9.34196 11.4142 9.06066C11.7893 8.77936 12 8.39782 12 8V2C12 1.60218 11.7893 1.22064 11.4142 0.93934C11.0391 0.658035 10.5304 0.5 10 0.5H2ZM10 1.5H2C1.82319 1.5 1.65362 1.55268 1.5286 1.64645C1.40357 1.74021 1.33333 1.86739 1.33333 2V8C1.33333 8.13261 1.40357 8.25979 1.5286 8.35355C1.65362 8.44732 1.82319 8.5 2 8.5H10C10.1768 8.5 10.3464 8.44732 10.4714 8.35355C10.5964 8.25979 10.6667 8.13261 10.6667 8V2C10.6667 1.86739 10.5964 1.74021 10.4714 1.64645C10.3464 1.55268 10.1768 1.5 10 1.5Z" fill="#A7A7A7"/>
</svg>
