<svg width="30" height="30" viewBox="0 0 16 12" fill="none" xmlns="http://www.w3.org/2000/svg">
<path d="M5.33317 6.5C5.15636 6.5 4.98679 6.44732 4.86177 6.35355C4.73674 6.25979 4.6665 6.13261 4.6665 6C4.6665 5.86739 4.73674 5.74021 4.86177 5.64645C4.98679 5.55268 5.15636 5.5 5.33317 5.5C5.50998 5.5 5.67955 5.55268 5.80457 5.64645C5.9296 5.74021 5.99984 5.86739 5.99984 6C5.99984 6.13261 5.9296 6.25979 5.80457 6.35355C5.67955 6.44732 5.50998 6.5 5.33317 6.5ZM5.33317 8.5C5.15636 8.5 4.98679 8.44732 4.86177 8.35355C4.73674 8.25979 4.6665 8.13261 4.6665 8C4.6665 7.86739 4.73674 7.74021 4.86177 7.64645C4.98679 7.55268 5.15636 7.5 5.33317 7.5C5.50998 7.5 5.67955 7.55268 5.80457 7.64645C5.9296 7.74021 5.99984 7.86739 5.99984 8C5.99984 8.13261 5.9296 8.25979 5.80457 8.35355C5.67955 8.44732 5.50998 8.5 5.33317 8.5ZM7.33317 8C7.33317 8.13261 7.40341 8.25979 7.52843 8.35355C7.65346 8.44732 7.82303 8.5 7.99984 8.5C8.17665 8.5 8.34622 8.44732 8.47124 8.35355C8.59627 8.25979 8.6665 8.13261 8.6665 8C8.6665 7.86739 8.59627 7.74021 8.47124 7.64645C8.34622 7.55268 8.17665 7.5 7.99984 7.5C7.82303 7.5 7.65346 7.55268 7.52843 7.64645C7.40341 7.74021 7.33317 7.86739 7.33317 8ZM10.6665 8.5C10.4897 8.5 10.3201 8.44732 10.1951 8.35355C10.0701 8.25979 9.99984 8.13261 9.99984 8C9.99984 7.86739 10.0701 7.74021 10.1951 7.64645C10.3201 7.55268 10.4897 7.5 10.6665 7.5C10.8433 7.5 11.0129 7.55268 11.1379 7.64645C11.2629 7.74021 11.3332 7.86739 11.3332 8C11.3332 8.13261 11.2629 8.25979 11.1379 8.35355C11.0129 8.44732 10.8433 8.5 10.6665 8.5ZM7.33317 6C7.33317 6.13261 7.40341 6.25979 7.52843 6.35355C7.65346 6.44732 7.82303 6.5 7.99984 6.5C8.17665 6.5 8.34622 6.44732 8.47124 6.35355C8.59627 6.25979 8.6665 6.13261 8.6665 6C8.6665 5.86739 8.59627 5.74021 8.47124 5.64645C8.34622 5.55268 8.17665 5.5 7.99984 5.5C7.82303 5.5 7.65346 5.55268 7.52843 5.64645C7.40341 5.74021 7.33317 5.86739 7.33317 6ZM10.6665 6.5C10.4897 6.5 10.3201 6.44732 10.1951 6.35355C10.0701 6.25979 9.99984 6.13261 9.99984 6C9.99984 5.86739 10.0701 5.74021 10.1951 5.64645C10.3201 5.55268 10.4897 5.5 10.6665 5.5C10.8433 5.5 11.0129 5.55268 11.1379 5.64645C11.2629 5.74021 11.3332 5.86739 11.3332 6C11.3332 6.13261 11.2629 6.25979 11.1379 6.35355C11.0129 6.44732 10.8433 6.5 10.6665 6.5ZM5.33317 3.5C5.15636 3.5 4.98679 3.55268 4.86177 3.64645C4.73674 3.74021 4.6665 3.86739 4.6665 4C4.6665 4.13261 4.73674 4.25979 4.86177 4.35355C4.98679 4.44732 5.15636 4.5 5.33317 4.5H10.6665C10.8433 4.5 11.0129 4.44732 11.1379 4.35355C11.2629 4.25979 11.3332 4.13261 11.3332 4C11.3332 3.86739 11.2629 3.74021 11.1379 3.64645C11.0129 3.55268 10.8433 3.5 10.6665 3.5H5.33317Z" fill="#A7A7A7"/>
<path fill-rule="evenodd" clip-rule="evenodd" d="M4 1.5C3.46957 1.5 2.96086 1.65804 2.58579 1.93934C2.21071 2.22064 2 2.60218 2 3V9C2 9.39782 2.21071 9.77936 2.58579 10.0607C2.96086 10.342 3.46957 10.5 4 10.5H12C12.5304 10.5 13.0391 10.342 13.4142 10.0607C13.7893 9.77936 14 9.39782 14 9V3C14 2.60218 13.7893 2.22064 13.4142 1.93934C13.0391 1.65804 12.5304 1.5 12 1.5H4ZM12 2.5H4C3.82319 2.5 3.65362 2.55268 3.5286 2.64645C3.40357 2.74021 3.33333 2.86739 3.33333 3V9C3.33333 9.13261 3.40357 9.25979 3.5286 9.35355C3.65362 9.44732 3.82319 9.5 4 9.5H12C12.1768 9.5 12.3464 9.44732 12.4714 9.35355C12.5964 9.25979 12.6667 9.13261 12.6667 9V3C12.6667 2.86739 12.5964 2.74021 12.4714 2.64645C12.3464 2.55268 12.1768 2.5 12 2.5Z" fill="#A7A7A7"/>
</svg>
